HIERARCHY
ROOT root
{
	OFFSET 0.000000 0.000000 0.000000
	CHANNELS 6 Xposition Yposition Zposition Zrotation Yrotation Xrotation
	JOINT lhip
	{
		OFFSET 0.058581 -0.082280 -0.017664
		CHANNELS 3 Zrotation Yrotation Xrotation
		JOINT lknee
		{
			OFFSET 0.043451 -0.386469 0.008037
			CHANNELS 3 Zrotation Yrotation Xrotation
			JOINT lankle
			{
				OFFSET -0.014790 -0.426874 -0.037428
				CHANNELS 3 Zrotation Yrotation Xrotation
				JOINT ltoe
				{
					OFFSET 0.041054 -0.060286 0.122042
					CHANNELS 3 Zrotation Yrotation Xrotation
					End Site
					{
						OFFSET 0.000000 0.000000 0.000000
					}
				}
			}
		}
	}
	JOINT rhip
	{
		OFFSET -0.060310 -0.090513 -0.013543
		CHANNELS 3 Zrotation Yrotation Xrotation
		JOINT rknee
		{
			OFFSET -0.043257 -0.383688 -0.004843
			CHANNELS 3 Zrotation Yrotation Xrotation
			JOINT rankle
			{
				OFFSET 0.019056 -0.420046 -0.034562
				CHANNELS 3 Zrotation Yrotation Xrotation
				JOINT rtoe
				{
					OFFSET -0.034840 -0.062106 0.130323
					CHANNELS 3 Zrotation Yrotation Xrotation
					End Site
					{
						OFFSET 0.000000 0.000000 0.000000
					}
				}
			}
		}
	}
	JOINT lowerback
	{
		OFFSET 0.004439 0.124404 -0.038385
		CHANNELS 3 Zrotation Yrotation Xrotation
		JOINT upperback
		{
			OFFSET 0.004488 0.137956 0.026820
			CHANNELS 3 Zrotation Yrotation Xrotation
			JOINT chest
			{
				OFFSET -0.002265 0.056032 0.002855
				CHANNELS 3 Zrotation Yrotation Xrotation
				JOINT lowerneck
				{
					OFFSET -0.013390 0.211636 -0.033468
					CHANNELS 3 Zrotation Yrotation Xrotation
					JOINT upperneck
					{
						OFFSET 0.010113 0.088937 0.050410
						CHANNELS 3 Zrotation Yrotation Xrotation
						End Site
						{
							OFFSET 0.000000 0.000000 0.000000
						}
					}
				}
				JOINT lclavicle
				{
					OFFSET 0.071702 0.114000 -0.018898
					CHANNELS 3 Zrotation Yrotation Xrotation
					JOINT lshoulder
					{
						OFFSET 0.122921 0.045205 -0.019046
						CHANNELS 3 Zrotation Yrotation Xrotation
						JOINT lelbow
						{
							OFFSET 0.255332 -0.015649 -0.022946
							CHANNELS 3 Zrotation Yrotation Xrotation
							JOINT lwrist
							{
								OFFSET 0.265709 0.012698 -0.007375
								CHANNELS 3 Zrotation Yrotation Xrotation
								End Site
								{
									OFFSET 0.000000 0.000000 0.000000
								}
							}
						}
					}
				}
				JOINT rclavicle
				{
					OFFSET -0.082954 0.112472 -0.023707
					CHANNELS 3 Zrotation Yrotation Xrotation
					JOINT rshoulder
					{
						OFFSET -0.113228 0.046853 -0.008472
						CHANNELS 3 Zrotation Yrotation Xrotation
						JOINT relbow
						{
							OFFSET -0.260127 -0.014369 -0.031269
							CHANNELS 3 Zrotation Yrotation Xrotation
							JOINT rwrist
							{
								OFFSET -0.269108 0.006794 -0.006027
								CHANNELS 3 Zrotation Yrotation Xrotation
								End Site
								{
									OFFSET 0.000000 0.000000 0.000000
								}
							}
						}
					}
				}
			}
		}
	}
}
MOTION
Frames: 14
Frame Time: 0.033333
-0.037613 0.234859 1.009867 91.001884 -1.019111 78.680483 3.924497 -1.560036 6.421684 -4.361871 -6.807126 11.537564 -1.603096 12.316001 -8.655512 0.000000 -0.000000 0.000000 -3.072885 -5.409919 5.528939 0.780822 -4.866889 11.437871 5.368190 -8.220345 -8.519980 0.000000 -0.000000 0.000000 0.648443 1.298195 13.044777 0.572411 -1.307115 2.496345 -0.385598 0.891724 5.190180 0.208301 0.375951 5.528414 -0.005872 -4.321914 27.886496 -16.446074 3.934136 3.827554 -56.563141 -0.630600 18.866281 -18.834973 -61.131975 19.601382 0.681661 -6.745648 -41.523290 17.185616 0.406394 0.520335 55.908472 0.420341 21.782949 9.752947 55.278454 22.819657 23.302293 1.525892 -11.480840 
-0.036489 0.234294 1.009574 90.930198 -1.067730 78.735945 3.944542 -1.674282 6.440153 -4.459112 -6.733202 11.550195 -1.656576 12.470314 -8.690558 0.000000 -0.000000 0.000000 -3.101640 -5.323420 5.537418 0.846159 -4.918817 11.412175 5.461263 -8.340879 -8.588398 0.000000 -0.000000 0.000000 0.657570 1.322506 12.876086 0.545053 -1.277166 2.566029 -0.388140 0.795064 5.067715 0.141799 0.304794 5.437775 0.014901 -4.119340 27.747250 -16.462558 3.912147 3.993846 -56.561677 -0.284194 18.801968 -18.735330 -61.587168 19.114845 -0.088734 -6.538537 -42.662031 17.080187 0.453337 0.649939 56.059825 0.542736 21.755042 9.580762 55.163396 22.494614 23.903257 1.386089 -11.562262 
-0.034927 0.233784 1.009363 90.902855 -1.107145 78.589735 3.955565 -1.686896 6.787060 -4.453533 -6.672431 11.388272 -1.765833 12.509706 -8.652405 0.000000 -0.000000 0.000000 -3.137247 -5.353357 5.745657 0.820601 -4.916616 11.480925 5.525206 -8.318048 -8.754882 0.000000 -0.000000 0.000000 0.619816 1.281646 12.890050 0.491529 -1.285062 2.567392 -0.390761 0.891714 5.098092 0.256713 0.284243 5.205185 0.064257 -4.214827 27.692138 -16.460665 4.129273 3.868866 -56.462941 -0.328129 18.756140 -18.765811 -61.927027 18.621509 1.177324 -6.906727 -42.688667 17.153976 0.459181 0.575747 56.021366 0.504901 21.858047 9.681586 55.014775 22.331102 23.278763 1.544947 -11.066525 
-0.033219 0.233271 1.009080 90.788676 -1.126961 78.532893 3.993395 -1.550884 7.000081 -4.392548 -6.623766 11.298183 -1.817180 12.547235 -8.598621 0.000000 -0.000000 0.000000 -3.137290 -5.329381 5.799394 0.856064 -4.843651 11.666519 5.437806 -8.380149 -8.778451 0.000000 -0.000000 0.000000 0.599690 1.286933 12.724563 0.509980 -1.213548 2.716339 -0.410312 0.912705 5.135806 0.308876 0.176394 5.094405 0.070401 -4.254448 27.360154 -16.434161 4.248910 3.897619 -56.236999 -0.338717 18.783624 -19.437940 -62.239940 19.286447 1.029438 -7.080617 -43.100180 17.201482 0.366166 0.507495 56.033951 0.538625 21.875234 9.711705 54.937601 22.370717 23.325411 1.429297 -10.949436 
-0.032406 0.233046 1.008899 90.768034 -1.130811 78.556290 4.020227 -1.493668 7.025149 -4.318322 -6.458236 11.235080 -1.914028 12.506129 -8.533885 0.000000 -0.000000 0.000000 -3.143878 -5.398214 5.726742 0.797646 -4.914053 11.780999 5.434512 -8.219575 -8.813252 0.000000 -0.000000 0.000000 0.598657 1.267877 12.668409 0.519779 -1.235506 2.728978 -0.407746 0.948883 5.070191 0.255173 0.167670 5.058535 0.095082 -4.392888 27.174950 -16.347710 4.292024 3.905703 -56.231534 -0.294512 18.780337 -19.723891 -62.321225 19.702921 0.708933 -7.206607 -43.028138 17.167724 0.306387 0.531493 56.107141 0.496148 21.800575 9.589425 54.965136 22.340230 23.646162 1.338492 -11.032258 
-0.031326 0.232585 1.008836 90.763709 -1.110767 78.566290 4.145020 -1.380963 7.141900 -4.236362 -6.258633 11.034589 -2.052463 12.387095 -8.206100 0.000000 -0.000000 0.000000 -3.097513 -5.399786 5.960488 0.790901 -4.962184 11.413932 5.316736 -8.244898 -8.587526 0.000000 -0.000000 0.000000 0.622379 1.243747 12.632707 0.520822 -1.272654 2.673025 -0.415178 0.929192 5.053045 0.232147 0.201469 4.939722 0.102177 -4.371103 27.061826 -16.369832 4.283038 3.998689 -56.111621 -0.375177 18.685857 -19.840669 -62.200645 20.118877 0.381180 -7.677780 -42.797441 17.144588 0.279825 0.578377 56.165987 0.514668 21.718938 9.562813 54.885176 22.387907 23.799646 1.484019 -11.159212 
-0.029917 0.232228 1.008986 90.780707 -1.057134 78.609535 4.384820 -1.154019 7.279078 -4.219535 -6.101046 10.742190 -2.183096 12.147948 -7.852966 0.000000 -0.000000 0.000000 -3.100967 -5.603121 6.082420 0.905779 -5.051450 11.355208 5.200380 -8.162835 -8.315372 0.000000 -0.000000 0.000000 0.681792 1.159259 12.501294 0.515221 -1.332535 2.695196 -0.408424 0.932722 4.957615 0.162481 0.189131 4.949373 0.128526 -4.315404 26.912290 -16.407608 4.248827 4.065373 -56.124737 -0.279994 18.583797 -19.778535 -62.148509 20.248309 0.272812 -7.683972 -42.572654 17.132654 0.260634 0.669471 56.173711 0.528133 21.584716 9.671492 54.801786 22.615542 23.852671 1.506928 -11.106486 
-0.028890 0.231929 1.008913 90.782635 -1.085798 78.759114 4.490436 -1.030082 7.229552 -4.224937 -5.921882 10.566669 -2.333980 12.049574 -7.525096 0.000000 -0.000000 0.000000 -3.098676 -5.573090 6.028805 0.893069 -5.046587 11.237280 5.157930 -8.179927 -8.273973 0.000000 -0.000000 0.000000 0.633697 1.082859 12.355338 0.495221 -1.350070 2.576094 -0.430893 0.895157 4.888425 0.172352 0.236668 4.937433 0.131976 -4.213098 26.907149 -16.411747 4.323478 4.049753 -56.062240 -0.210491 18.597615 -19.781546 -62.061340 20.441718 -0.070917 -7.669374 -42.463628 17.143297 0.217971 0.678010 56.203078 0.607971 21.640209 9.826096 54.636454 22.747027 24.021236 1.491581 -11.229894 
-0.027782 0.231679 1.008835 90.735737 -1.087409 78.786576 4.572709 -0.916934 7.337834 -4.205413 -5.798515 10.429653 -2.333824 11.944304 -7.357103 0.000000 -0.000000 0.000000 -3.060933 -5.512283 6.052319 0.862776 -5.119166 11.231158 5.055463 -8.188616 -8.147165 0.000000 -0.000000 0.000000 0.573982 1.051009 12.199662 0.513675 -1.315464 2.688033 -0.401944 0.918056 4.875473 0.165377 0.257506 4.811919 0.133976 -4.239001 26.747853 -16.378655 4.314373 4.014172 -56.116263 -0.288703 18.590955 -19.836390 -61.917268 20.632356 -0.332093 -7.523300 -42.168451 17.095698 0.239995 0.646706 56.246960 0.629767 21.641912 9.886815 54.533250 22.856069 24.251009 1.489012 -11.286363 
-0.026842 0.231459 1.008675 90.690856 -1.122451 78.849396 4.566636 -1.001173 7.326723 -4.240595 -5.671244 10.437503 -2.334285 11.900456 -7.252983 0.000000 -0.000000 0.000000 -3.031997 -5.407833 6.012603 0.787413 -5.175975 11.193884 4.981837 -8.230370 -8.059019 0.000000 -0.000000 0.000000 0.522181 1.078317 12.184488 0.517880 -1.299915 2.644435 -0.383415 0.867769 4.821855 0.118054 0.267367 4.713263 0.129094 -4.232932 26.640248 -16.309137 4.279991 4.085757 -56.178789 -0.275380 18.621804 -19.755223 -61.954878 20.651167 -0.229109 -7.604818 -42.029515 17.001317 0.294333 0.670192 56.310891 0.626942 21.709039 9.930384 54.422463 22.876559 24.196451 1.516331 -11.458877 
-0.025685 0.231443 1.008742 90.611848 -1.080758 78.764588 4.637959 -0.874311 7.439855 -4.248784 -5.677584 10.596472 -2.329933 11.847582 -7.457521 0.000000 -0.000000 0.000000 -3.023907 -5.537118 6.150580 0.830455 -5.175135 11.284089 4.876446 -8.236309 -7.812477 0.000000 -0.000000 0.000000 0.615248 1.075497 12.301144 0.499292 -1.270630 2.563713 -0.381088 0.889020 4.794027 0.027310 0.220007 4.759776 0.139617 -4.119036 26.578642 -16.361897 4.137541 4.198377 -56.112491 -0.198460 18.497390 -19.796564 -62.036112 20.762820 -0.428394 -7.696489 -42.045273 16.988960 0.420632 0.772117 56.273451 0.505596 21.564775 9.925113 54.448863 22.874161 24.275549 1.567846 -11.488051 
-0.024735 0.231444 1.008495 90.547902 -1.105366 78.763578 4.629158 -0.957517 7.519716 -4.307785 -5.622065 10.584024 -2.253200 11.882513 -7.421300 0.000000 -0.000000 0.000000 -3.058381 -5.462811 6.160883 0.838273 -5.164146 11.348244 4.874445 -8.233096 -7.920807 0.000000 -0.000000 0.000000 0.618243 1.129491 12.266877 0.497506 -1.220063 2.592810 -0.393716 0.901437 4.760800 0.000752 0.218665 4.844135 0.204937 -4.112863 26.436640 -16.343024 4.093012 4.215664 -56.053845 -0.250837 18.537995 -19.903026 -62.031537 20.851038 -0.618408 -7.637225 -42.077355 16.974838 0.414868 0.794186 56.243647 0.446316 21.537391 9.896088 54.489964 22.865013 24.404555 1.487050 -11.540560 
-0.023625 0.231395 1.008338 90.487385 -1.096610 78.776476 4.701928 -0.809401 7.559222 -4.356831 -5.620557 10.624020 -2.251130 11.895766 -7.465334 0.000000 -0.000000 0.000000 -3.070279 -5.512674 6.123219 0.874407 -5.148667 11.533282 4.791037 -8.194968 -7.991567 0.000000 -0.000000 0.000000 0.618028 1.147133 12.216076 0.486520 -1.155031 2.552139 -0.393486 0.899338 4.749571 0.055263 0.198199 4.916380 0.206770 -4.131033 26.540393 -16.321646 4.109227 4.192586 -55.999822 -0.213846 18.560047 -20.162873 -61.987287 21.095767 -0.384742 -7.707689 -42.135772 16.996647 0.404835 0.828844 56.047307 0.454084 21.547207 10.373196 54.437670 23.257362 24.150391 1.607278 -11.551804 
-0.022360 0.231631 1.008190 90.452272 -1.124205 78.740241 4.708168 -0.664418 7.684315 -4.334673 -5.623058 10.587878 -2.320613 11.813961 -7.467666 0.000000 -0.000000 0.000000 -3.147283 -5.583313 6.211451 0.871624 -5.049474 11.569113 4.845357 -8.130478 -8.052394 0.000000 -0.000000 0.000000 0.604853 1.146638 12.147962 0.472636 -1.151528 2.600053 -0.406849 0.899183 4.747161 0.011533 0.146090 4.987669 0.224789 -4.102555 26.587823 -16.348925 4.142263 4.168233 -55.972489 -0.246267 18.581687 -20.229632 -61.933680 21.104882 -0.292795 -7.685934 -42.155788 16.964867 0.408287 0.798873 55.905431 0.520156 21.592691 10.767219 54.327948 23.510284 24.052504 1.638781 -11.541417 
